<svg viewBox="0 0 100 100" xmlns="http://www.w3.org/2000/svg" xmlns:xlink="http://www.w3.org/1999/xlink"><style>:root&gt;svg{display:none}:root&gt;svg:target{display:block}</style><svg viewBox="0 0 64 64" id="icons8-dota-2" xmlns="http://www.w3.org/2000/svg"><g data-name="Layer 1"><path fill="#ed7899" d="M57 8.25h-5c-1.06 0-1.36.09-2.5 1.25V7H42c-1.58 0-2 .72-2.5 2.5H37A4.36 4.36 0 0135.75 7H27a3 3 0 01-2.63 2.5h-3.62c-.57 0-1-.76-1.25-1.25H7v10A44.35 44.35 0 008.25 27v2.58L7 30.75v5L8.25 37v6.25L7 47l1.25 5L7 55.75h17.5l1.25-1.25C26 55 27 57 28.25 57H32c1.25 0 2.5-1.25 3.75-1.25H42l1.25-1.25C44.5 55.75 45 57 45.75 57H52v-2.5l5 1.25S56.92 43.42 57 37l-1.25-1.25V29.5l-1.25-1.25 1.25-2.5L57 24.5v-6.26l-1.23-5L57 10.75zm-13.64 7.5l3.81 2.5-1.27 7.5-10.15-7.5zM19.5 48.25l-5-3.75 2.5-8.75 10 10zM46 47h-5.83L14 20l8-4 27.5 22.9z"/><path fill="#8d6c9f" d="M46 48h-5.83a1 1 0 01-.72-.3l-26.17-27a1 1 0 01.27-1.59l8-4a1 1 0 011.09.12l27.5 22.9a1 1 0 01.28 1.17l-3.5 8.1a1 1 0 01-.92.6zm-5.41-2h4.75l2.95-6.81-26.43-22-6.19 3.09zm5.31-19.25a1 1 0 01-.6-.2l-10.14-7.5a1 1 0 01-.4-1 1 1 0 01.68-.79l7.61-2.5a1 1 0 01.86.11l3.81 2.5a1 1 0 01.43 1l-1.27 7.5a1 1 0 01-.61.76.94.94 0 01-.37.12zm-8-8.15l7.28 5.4.89-5.25-2.85-1.88z"/><path fill="#8d6c9f" d="M52 58h-6.25c-1 0-1.53-.74-2.14-1.53l-.4-.52-.5.51a1 1 0 01-.71.29h-6.25a3.8 3.8 0 00-1.43.52A5.28 5.28 0 0132 58h-3.75a3.57 3.57 0 01-2.72-1.86l-.32.32a1 1 0 01-.71.29H7a1 1 0 01-.81-.42 1 1 0 01-.14-.9L7.21 52 6 47.24a1 1 0 010-.56l1.2-3.59v-5.68l-1-.95a1 1 0 01-.2-.71v-5a1 1 0 01.31-.75l.93-.87v-2A44.12 44.12 0 016 18.25v-10a1 1 0 011-1h12.5a1 1 0 01.92.6 1.88 1.88 0 00.42.65h3.53c1 0 1.6-1.27 1.63-1.6a1 1 0 011-.9h8.75a1 1 0 011 1 2.84 2.84 0 00.7 1.5h1.32C39.28 7 40 6 42 6h7.5a1 1 0 011 1v.47a3.89 3.89 0 011.5-.22h5a1 1 0 011 1v2.5a1 1 0 01-.11.45l-1.08 2.17L58 18a1 1 0 010 .24v6.26a1 1 0 01-.29.71l-1.14 1.13-.85 1.71.74.74a1 1 0 01.29.71v5.84l1 .95A1 1 0 0158 37c-.08 6.34 0 18.61 0 18.73a1 1 0 01-.38.8 1 1 0 01-.86.18L53 55.78V57a1 1 0 01-1 1zm-6.17-2H51v-1.5a1 1 0 01.38-.79 1 1 0 01.86-.18l3.75.94c0-3.25-.05-11.87 0-17.06l-1-.95a1 1 0 01-.29-.71v-5.84l-1-.95a1 1 0 01-.18-1.16l1.25-2.5A1.1 1.1 0 0155 25l1-.95v-5.7l-1.2-4.87a1 1 0 01.08-.69L56 10.51V9.25h-4c-.79 0-.85 0-1.79.95a1 1 0 01-1.09.23 1 1 0 01-.62-.93V8H42c-.81 0-1 0-1.54 1.79a1 1 0 01-1 .71H37a1 1 0 01-.71-.29A6.33 6.33 0 0134.91 8h-7.16a3.84 3.84 0 01-3.38 2.5h-3.62a2.3 2.3 0 01-1.85-1.25H8v9a43.86 43.86 0 001.22 8.51 1 1 0 010 .25v2.58a1 1 0 01-.32.72l-.9.87v4.16l1 .95a1 1 0 01.29.71v6.25a1.19 1.19 0 01-.05.32L8 47l1.18 4.72a1 1 0 010 .56l-.81 2.43h15.7l.95-1a1 1 0 011.61.28c.57 1.19 1.27 1.93 1.6 1.93H32a3.8 3.8 0 001.43-.52 5.28 5.28 0 012.32-.73h5.84l.95-1a1 1 0 011.42 0 16.25 16.25 0 011.24 1.46 6.39 6.39 0 00.63.87z"/><path fill="#8d6c9f" d="M19.5 49.25a1 1 0 01-.6-.2l-5-3.75a1 1 0 01-.36-1.07L16 35.48a1 1 0 01.74-.71 1 1 0 011 .32l9 10.25a1 1 0 01.22.92 1 1 0 01-.64.68l-6.5 2.25a1 1 0 01-.32.06zm-3.85-5.14l4 3 4.6-1.59-6.81-7.75zm27.1.16a1 1 0 01-.69-.28 1 1 0 010-1.41l1.39-1.44a1 1 0 111.44 1.39L43.47 44a1 1 0 01-.72.27zm-3.81-3.68a1.05 1.05 0 01-.7-.28 1 1 0 010-1.42l1.39-1.44a1 1 0 011.44 1.39l-1.39 1.44a1 1 0 01-.74.31zm-3.82-3.69a1 1 0 01-.69-.28 1 1 0 010-1.41l1.39-1.44a1 1 0 011.44 1.39l-1.42 1.44a1 1 0 01-.72.3zm-3.81-3.68a1 1 0 01-.72-1.7L32 30.09a1 1 0 111.43 1.39L32 32.91a1 1 0 01-.69.31zm-3.82-3.68a1 1 0 01-.69-.29 1 1 0 010-1.41l1.39-1.44a1 1 0 011.44 1.39l-1.39 1.44a1 1 0 01-.75.31zm-3.82-3.69a1 1 0 01-.69-.28 1 1 0 010-1.41l1.39-1.44a1 1 0 111.44 1.39l-1.39 1.44a1 1 0 01-.75.3zm-3.81-3.68a1.05 1.05 0 01-.7-.28 1 1 0 010-1.42L20.53 19A1 1 0 0122 20.42l-1.39 1.44a1 1 0 01-.75.31z"/></g></svg><svg viewBox="0 0 48 48" id="icons8-league-of-legends" xmlns="http://www.w3.org/2000/svg"><path fill="#dd9f05" d="M24 7a19 19 0 100 38 19 19 0 100-38z"/><path fill="#01579b" d="M24 9a17 17 0 100 34 17 17 0 100-34z"/><path fill="#0277bd" d="M34 32c.917 2.917-2.167 5.045-4.583 5.045-1.322 0-2.958-.504-3.417-2.045a34.526 34.526 0 00-4 2.518V39h12.915a17.01 17.01 0 004.671-6.22C38.731 32.46 36.988 32 34 32zm2.563-17.429a22.086 22.086 0 00-8.052 4.386C27.629 21.634 25.517 24.582 22 27v7s2.796-5.109 9.417-6.667a56.387 56.387 0 019.581-1.386 16.906 16.906 0 00-4.435-11.376z"/><path fill="#0091ea" d="M34.919 12.993a17.056 17.056 0 00-3.089-2.073c-1.113.515-2.506 1.223-3.83 2.08.629.787.957 1.84.985 3.04a23.948 23.948 0 015.934-3.047z"/><path fill="#0277bd" d="M24 11a15 15 0 100 30 15 15 0 100-30z"/><path fill="#00b0ff" d="M29.557 12.076c-.517.286-1.041.59-1.557.924.629.787.957 1.84.985 3.04a24.296 24.296 0 013.804-2.178 14.934 14.934 0 00-3.232-1.786z"/><path fill="#0091ea" d="M39 26c0-4.19-1.721-7.974-4.491-10.695-2.875 1.18-4.954 2.746-5.999 3.652-.881 2.677-2.993 5.625-6.51 8.043v7s2.796-5.109 9.417-6.667a56.899 56.899 0 017.578-1.234c0-.033.005-.065.005-.099z"/><path fill="#b3831d" d="M39.473 37H33v2h4.83a18.982 18.982 0 001.643-2zM22 7.107v37.786c.658.069 1.324.107 2 .107V7c-.676 0-1.342.038-2 .107zM11 39.83a19.107 19.107 0 002 1.643V10.527a19.107 19.107 0 00-2 1.643v27.66z"/><path fill="#01579b" d="M11 36.943c.609.723 1.28 1.392 2 2.005V13.051a17.136 17.136 0 00-2 2.005v21.887z"/><path fill="#ffc107" d="M10 3h12v36h20l-5 6H10l3-4V7z"/><path fill="#01579b" d="M24 37V9c-.678 0-1.343.051-2 .128V39h12.943a17.136 17.136 0 002.005-2H24z"/><path fill="#0277bd" d="M24 25.395A17.09 17.09 0 0122 27v7s.636-1.149 2-2.521v-6.084z"/><path fill="#e8a30a" d="M22 39V3h-2v38h20.333L42 39z"/><path fill="#0091ea" d="M34 32c.917 2.917-2.167 5.045-4.583 5.045-1.322 0-2.958-.504-3.417-2.045a34.526 34.526 0 00-4 2.518V39h9.462a15.04 15.04 0 006.15-6.727C36.693 32.117 35.505 32 34 32z"/><path fill="#0277bd" d="M36.349 37.65c.196-.206.366-.435.551-.65h-6.89c-.2.027-.399.045-.593.045-.209 0-.426-.018-.644-.045H24v-.836a36.461 36.461 0 00-2 1.354V39h12.915c.497-.418.971-.863 1.418-1.333l.016-.017z"/></svg><svg viewBox="0 0 100 100" id="icons8-valorant" xmlns="http://www.w3.org/2000/svg"><path fill="#f15b6c" d="M10 18.834v27.802a4 4 0 00.833 2.443l24.966 32.364A3.999 3.999 0 0038.966 83H61.91a1 1 0 00.779-1.628l-50.91-63.166c-.592-.734-1.779-.315-1.779.628z"/><path fill="#1f212b" d="M61.91 84H38.966a5.036 5.036 0 01-3.959-1.945L10.041 49.69A5.027 5.027 0 019 46.637V18.834c0-.859.524-1.6 1.334-1.886a1.98 1.98 0 012.223.631l50.91 63.165c.488.605.583 1.417.247 2.119A1.985 1.985 0 0161.91 84zM11 18.834v27.803c0 .659.222 1.311.625 1.833l24.966 32.363A3.022 3.022 0 0038.966 82H61.91L11 18.834z"/><path fill="#f15b6c" d="M57.073 60h22.031c1.2 0 2.336-.539 3.096-1.467l6.896-8.428A3.998 3.998 0 0090 47.572V18.864c0-.947-1.193-1.363-1.783-.623L56.291 58.377A1 1 0 0057.073 60z"/><path fill="#1f212b" d="M79.104 61H57.073a1.986 1.986 0 01-1.802-1.132 1.983 1.983 0 01.237-2.113l31.926-40.136a1.977 1.977 0 012.225-.644A1.977 1.977 0 0191 18.863v28.709c0 1.15-.401 2.275-1.13 3.166l-6.896 8.428A4.978 4.978 0 0179.104 61zm-22.031-2h22.031c.904 0 1.75-.401 2.322-1.1l6.896-8.428c.437-.535.678-1.21.678-1.9V18.863L57.073 59z"/></svg></svg>